<svg xmlns="http://www.w3.org/2000/svg" viewBox="0 0 18.50 19.28" width="18.50mm" height="19.28mm">
  <path fill="#000000" d="M 9.25 0.00
    C 11.47 0.00, 12.03 2.31, 12.03 3.66
    C 13.88 4.82, 17.20 6.56, 17.76 7.23
    C 18.50 7.90, 18.50 9.06, 17.95 9.64
    C 16.28 10.80, 13.32 10.22, 13.32 10.22
    C 13.88 13.30, 15.54 18.12, 15.54 18.70
    C 15.54 19.28, 13.88 19.28, 11.47 19.28
    L 10.92 19.28
    C 9.80 16.77, 9.25 15.04, 9.25 15.04
    C 9.25 15.04, 8.70 16.77, 7.58 19.28
    L 7.03 19.28
    C 4.63 19.28, 2.96 19.28, 2.96 18.70
    C 2.96 18.12, 4.63 13.30, 5.18 10.22
    C 5.18 10.22, 2.22 10.80, 0.55 9.64
    C 0.00 9.06, 0.00 7.90, 0.74 7.23
    C 1.30 6.56, 4.63 4.82, 6.48 3.66
    C 6.48 2.31, 7.03 0.00, 9.25 0.00 Z" />
</svg>