<svg xmlns="http://www.w3.org/2000/svg" viewBox="0 0 52.80 24.88" width="52.80mm" height="24.88mm">
  <path fill="#000000" d="M 16.00 5.00
    L 18.00 4.00 L 18.50 6.00
    L 20.00 5.00 L 21.00 8.00
    C 25.00 8.00, 28.00 4.00, 30.00 0.00
    C 32.00 8.00, 36.00 12.00, 42.00 14.00
    C 46.00 14.00, 48.00 12.00, 50.00 11.00
    L 51.00 9.00 L 52.80 11.00
    L 51.00 14.00 L 49.00 17.00
    L 46.00 16.00
    C 42.00 18.00, 40.00 22.00, 40.00 24.88
    L 28.00 24.88
    C 28.00 20.00, 24.00 20.00, 20.00 24.88
    L 10.00 24.88
    C 10.00 20.00, 14.00 16.00, 14.00 14.00
    C 8.00 14.00, 0.00 12.00, 0.00 8.00
    C 0.00 4.00, 6.00 4.00, 10.00 6.00
    C 12.00 4.00, 14.00 5.00, 16.00 5.00 Z" />
</svg>