<svg xmlns="http://www.w3.org/2000/svg" viewBox="0 0 16.00 15.98" width="16mm" height="15.98mm">
  <path fill="#000000" d="M 8.00 0.00
    C 9.92 0.00, 10.40 1.92, 10.40 3.04
    C 12.00 4.00, 14.88 5.43, 15.36 6.00
    C 16.00 6.55, 16.00 7.51, 15.52 8.00
    C 14.08 8.95, 11.52 8.47, 11.52 8.47
    C 12.00 11.03, 13.44 15.02, 13.44 15.50
    C 13.44 15.98, 12.00 15.98, 9.92 15.98
    L 9.44 15.98
    C 8.48 13.90, 8.00 12.46, 8.00 12.46
    C 8.00 12.46, 7.52 13.90, 6.56 15.98
    L 6.08 15.98
    C 4.00 15.98, 2.56 15.98, 2.56 15.50
    C 2.56 15.02, 4.00 11.03, 4.48 8.47
    C 4.48 8.47, 1.92 8.95, 0.48 8.00
    C 0.00 7.51, 0.00 6.55, 0.64 6.00
    C 1.12 5.43, 4.00 4.00, 5.60 3.04
    C 5.60 1.92, 6.08 0.00, 8.00 0.00 Z" />
</svg>